<mxfile host="app.diagrams.net" modified="2022-05-24T19:54:48.070Z" agent="5.0 (Macintosh; Intel Mac OS X 10_15_7) AppleWebKit/537.36 (KHTML, like Gecko) Chrome/101.0.4951.41 Safari/537.36" etag="v-60WTNMtcLyU1IOR1XN" version="18.1.2" type="github" pages="2">
  <diagram id="C5RBs43oDa-KdzZeNtuy" name="Page-1">
    <mxGraphModel dx="2013" dy="694" grid="1" gridSize="10" guides="1" tooltips="1" connect="1" arrows="1" fold="1" page="1" pageScale="1" pageWidth="827" pageHeight="1169" math="0" shadow="0">
      <root>
        <mxCell id="WIyWlLk6GJQsqaUBKTNV-0" />
        <mxCell id="WIyWlLk6GJQsqaUBKTNV-1" parent="WIyWlLk6GJQsqaUBKTNV-0" />
        <mxCell id="WIyWlLk6GJQsqaUBKTNV-2" value="" style="rounded=0;html=1;jettySize=auto;orthogonalLoop=1;fontSize=11;endArrow=block;endFill=0;endSize=8;strokeWidth=1;shadow=0;labelBackgroundColor=none;edgeStyle=orthogonalEdgeStyle;" parent="WIyWlLk6GJQsqaUBKTNV-1" source="WIyWlLk6GJQsqaUBKTNV-3" target="WIyWlLk6GJQsqaUBKTNV-6" edge="1">
          <mxGeometry relative="1" as="geometry" />
        </mxCell>
        <mxCell id="WIyWlLk6GJQsqaUBKTNV-3" value="You cast your vote for option X" style="rounded=1;whiteSpace=wrap;html=1;fontSize=12;glass=0;strokeWidth=1;shadow=0;" parent="WIyWlLk6GJQsqaUBKTNV-1" vertex="1">
          <mxGeometry x="160" y="80" width="120" height="40" as="geometry" />
        </mxCell>
        <mxCell id="WIyWlLk6GJQsqaUBKTNV-4" value="No" style="rounded=0;html=1;jettySize=auto;orthogonalLoop=1;fontSize=11;endArrow=block;endFill=0;endSize=8;strokeWidth=1;shadow=0;labelBackgroundColor=none;edgeStyle=orthogonalEdgeStyle;" parent="WIyWlLk6GJQsqaUBKTNV-1" source="WIyWlLk6GJQsqaUBKTNV-6" target="WIyWlLk6GJQsqaUBKTNV-10" edge="1">
          <mxGeometry y="20" relative="1" as="geometry">
            <mxPoint as="offset" />
          </mxGeometry>
        </mxCell>
        <mxCell id="WIyWlLk6GJQsqaUBKTNV-5" value="Yes" style="edgeStyle=orthogonalEdgeStyle;rounded=0;html=1;jettySize=auto;orthogonalLoop=1;fontSize=11;endArrow=block;endFill=0;endSize=8;strokeWidth=1;shadow=0;labelBackgroundColor=none;entryX=0;entryY=0.5;entryDx=0;entryDy=0;" parent="WIyWlLk6GJQsqaUBKTNV-1" source="WIyWlLk6GJQsqaUBKTNV-6" target="5thFfPLRaguLMkFNzn1F-2" edge="1">
          <mxGeometry y="10" relative="1" as="geometry">
            <mxPoint as="offset" />
          </mxGeometry>
        </mxCell>
        <mxCell id="WIyWlLk6GJQsqaUBKTNV-6" value="Do you have followers" style="rhombus;whiteSpace=wrap;html=1;shadow=0;fontFamily=Helvetica;fontSize=12;align=center;strokeWidth=1;spacing=6;spacingTop=-4;" parent="WIyWlLk6GJQsqaUBKTNV-1" vertex="1">
          <mxGeometry x="170" y="170" width="100" height="80" as="geometry" />
        </mxCell>
        <mxCell id="WIyWlLk6GJQsqaUBKTNV-7" value="Do nothing" style="rounded=1;whiteSpace=wrap;html=1;fontSize=12;glass=0;strokeWidth=1;shadow=0;" parent="WIyWlLk6GJQsqaUBKTNV-1" vertex="1">
          <mxGeometry x="676" y="658" width="120" height="40" as="geometry" />
        </mxCell>
        <mxCell id="WIyWlLk6GJQsqaUBKTNV-8" value="No" style="rounded=0;html=1;jettySize=auto;orthogonalLoop=1;fontSize=11;endArrow=block;endFill=0;endSize=8;strokeWidth=1;shadow=0;labelBackgroundColor=none;edgeStyle=orthogonalEdgeStyle;" parent="WIyWlLk6GJQsqaUBKTNV-1" source="WIyWlLk6GJQsqaUBKTNV-10" target="WIyWlLk6GJQsqaUBKTNV-11" edge="1">
          <mxGeometry x="0.3333" y="20" relative="1" as="geometry">
            <mxPoint as="offset" />
          </mxGeometry>
        </mxCell>
        <mxCell id="WIyWlLk6GJQsqaUBKTNV-9" value="Yes" style="edgeStyle=orthogonalEdgeStyle;rounded=0;html=1;jettySize=auto;orthogonalLoop=1;fontSize=11;endArrow=block;endFill=0;endSize=8;strokeWidth=1;shadow=0;labelBackgroundColor=none;entryX=0;entryY=0.5;entryDx=0;entryDy=0;" parent="WIyWlLk6GJQsqaUBKTNV-1" source="WIyWlLk6GJQsqaUBKTNV-10" target="bSfvVQ0dN8N40NeZ-Qwh-18" edge="1">
          <mxGeometry y="10" relative="1" as="geometry">
            <mxPoint as="offset" />
            <mxPoint x="320" y="330" as="targetPoint" />
          </mxGeometry>
        </mxCell>
        <mxCell id="WIyWlLk6GJQsqaUBKTNV-10" value="Do you have delegates" style="rhombus;whiteSpace=wrap;html=1;shadow=0;fontFamily=Helvetica;fontSize=12;align=center;strokeWidth=1;spacing=6;spacingTop=-4;" parent="WIyWlLk6GJQsqaUBKTNV-1" vertex="1">
          <mxGeometry x="170" y="290" width="100" height="80" as="geometry" />
        </mxCell>
        <mxCell id="bSfvVQ0dN8N40NeZ-Qwh-5" value="" style="edgeStyle=none;rounded=0;orthogonalLoop=1;jettySize=auto;html=1;shadow=0;" edge="1" parent="WIyWlLk6GJQsqaUBKTNV-1" source="WIyWlLk6GJQsqaUBKTNV-11" target="bSfvVQ0dN8N40NeZ-Qwh-4">
          <mxGeometry relative="1" as="geometry" />
        </mxCell>
        <mxCell id="WIyWlLk6GJQsqaUBKTNV-11" value="Add +1 Voting Power for option X in your name" style="rounded=1;whiteSpace=wrap;html=1;fontSize=12;glass=0;strokeWidth=1;shadow=0;" parent="WIyWlLk6GJQsqaUBKTNV-1" vertex="1">
          <mxGeometry x="160" y="430" width="120" height="70" as="geometry" />
        </mxCell>
        <mxCell id="5thFfPLRaguLMkFNzn1F-1" value="" style="edgeStyle=none;rounded=0;orthogonalLoop=1;jettySize=auto;html=1;" edge="1" parent="WIyWlLk6GJQsqaUBKTNV-1" source="5thFfPLRaguLMkFNzn1F-0" target="WIyWlLk6GJQsqaUBKTNV-7">
          <mxGeometry relative="1" as="geometry" />
        </mxCell>
        <mxCell id="5thFfPLRaguLMkFNzn1F-6" value="Yes" style="edgeLabel;html=1;align=center;verticalAlign=middle;resizable=0;points=[];" vertex="1" connectable="0" parent="5thFfPLRaguLMkFNzn1F-1">
          <mxGeometry x="-0.3396" y="4" relative="1" as="geometry">
            <mxPoint x="11" y="-11" as="offset" />
          </mxGeometry>
        </mxCell>
        <mxCell id="5thFfPLRaguLMkFNzn1F-8" value="" style="edgeStyle=none;rounded=0;orthogonalLoop=1;jettySize=auto;html=1;" edge="1" parent="WIyWlLk6GJQsqaUBKTNV-1" source="5thFfPLRaguLMkFNzn1F-0" target="5thFfPLRaguLMkFNzn1F-7">
          <mxGeometry relative="1" as="geometry" />
        </mxCell>
        <mxCell id="5thFfPLRaguLMkFNzn1F-9" value="No" style="edgeLabel;html=1;align=center;verticalAlign=middle;resizable=0;points=[];" vertex="1" connectable="0" parent="5thFfPLRaguLMkFNzn1F-8">
          <mxGeometry x="-0.3" y="2" relative="1" as="geometry">
            <mxPoint x="11" as="offset" />
          </mxGeometry>
        </mxCell>
        <mxCell id="5thFfPLRaguLMkFNzn1F-0" value="Follower already voted" style="rhombus;whiteSpace=wrap;html=1;" vertex="1" parent="WIyWlLk6GJQsqaUBKTNV-1">
          <mxGeometry x="453" y="623" width="114" height="110" as="geometry" />
        </mxCell>
        <mxCell id="5thFfPLRaguLMkFNzn1F-2" value="Go through followers" style="shape=process;whiteSpace=wrap;html=1;backgroundOutline=1;" vertex="1" parent="WIyWlLk6GJQsqaUBKTNV-1">
          <mxGeometry x="340" y="180" width="120" height="60" as="geometry" />
        </mxCell>
        <mxCell id="5thFfPLRaguLMkFNzn1F-11" value="" style="edgeStyle=none;rounded=0;orthogonalLoop=1;jettySize=auto;html=1;" edge="1" parent="WIyWlLk6GJQsqaUBKTNV-1" source="5thFfPLRaguLMkFNzn1F-7" target="5thFfPLRaguLMkFNzn1F-23">
          <mxGeometry relative="1" as="geometry">
            <mxPoint x="686" y="873" as="targetPoint" />
          </mxGeometry>
        </mxCell>
        <mxCell id="5thFfPLRaguLMkFNzn1F-13" value="" style="edgeStyle=none;rounded=0;orthogonalLoop=1;jettySize=auto;html=1;" edge="1" parent="WIyWlLk6GJQsqaUBKTNV-1" source="5thFfPLRaguLMkFNzn1F-7" target="5thFfPLRaguLMkFNzn1F-12">
          <mxGeometry relative="1" as="geometry" />
        </mxCell>
        <mxCell id="5thFfPLRaguLMkFNzn1F-21" value="No" style="edgeLabel;html=1;align=center;verticalAlign=middle;resizable=0;points=[];" vertex="1" connectable="0" parent="5thFfPLRaguLMkFNzn1F-13">
          <mxGeometry x="-0.1619" relative="1" as="geometry">
            <mxPoint x="13" as="offset" />
          </mxGeometry>
        </mxCell>
        <mxCell id="5thFfPLRaguLMkFNzn1F-7" value="Follower has previously&amp;nbsp; voted delegates" style="rhombus;whiteSpace=wrap;html=1;" vertex="1" parent="WIyWlLk6GJQsqaUBKTNV-1">
          <mxGeometry x="456" y="798" width="114" height="110" as="geometry" />
        </mxCell>
        <mxCell id="5thFfPLRaguLMkFNzn1F-12" value="Add +1 Voting Power for option X in followers name" style="whiteSpace=wrap;html=1;" vertex="1" parent="WIyWlLk6GJQsqaUBKTNV-1">
          <mxGeometry x="453" y="973" width="120" height="60" as="geometry" />
        </mxCell>
        <mxCell id="5thFfPLRaguLMkFNzn1F-14" value="Go through followers" style="shape=process;whiteSpace=wrap;html=1;backgroundOutline=1;" vertex="1" parent="WIyWlLk6GJQsqaUBKTNV-1">
          <mxGeometry x="576" y="533" width="120" height="60" as="geometry" />
        </mxCell>
        <mxCell id="5thFfPLRaguLMkFNzn1F-19" value="" style="endArrow=none;dashed=1;html=1;dashPattern=1 3;strokeWidth=2;rounded=0;shadow=0;" edge="1" parent="WIyWlLk6GJQsqaUBKTNV-1">
          <mxGeometry width="50" height="50" relative="1" as="geometry">
            <mxPoint x="806" y="1060" as="sourcePoint" />
            <mxPoint x="806" y="1060" as="targetPoint" />
            <Array as="points">
              <mxPoint x="440" y="1060" />
              <mxPoint x="440" y="513" />
              <mxPoint x="806" y="513" />
            </Array>
          </mxGeometry>
        </mxCell>
        <mxCell id="5thFfPLRaguLMkFNzn1F-20" value="Yes" style="text;html=1;align=center;verticalAlign=middle;resizable=0;points=[];autosize=1;strokeColor=none;fillColor=none;" vertex="1" parent="WIyWlLk6GJQsqaUBKTNV-1">
          <mxGeometry x="596" y="833" width="40" height="20" as="geometry" />
        </mxCell>
        <mxCell id="5thFfPLRaguLMkFNzn1F-23" value="Adjust delegates&#39; voting power" style="shape=process;whiteSpace=wrap;html=1;backgroundOutline=1;" vertex="1" parent="WIyWlLk6GJQsqaUBKTNV-1">
          <mxGeometry x="676" y="823" width="120" height="60" as="geometry" />
        </mxCell>
        <mxCell id="bSfvVQ0dN8N40NeZ-Qwh-1" value="Adjust delegates&#39; voting power" style="shape=process;whiteSpace=wrap;html=1;backgroundOutline=1;" vertex="1" parent="WIyWlLk6GJQsqaUBKTNV-1">
          <mxGeometry x="160" y="579" width="120" height="60" as="geometry" />
        </mxCell>
        <mxCell id="bSfvVQ0dN8N40NeZ-Qwh-12" value="" style="edgeStyle=none;rounded=0;orthogonalLoop=1;jettySize=auto;html=1;shadow=0;" edge="1" parent="WIyWlLk6GJQsqaUBKTNV-1" source="bSfvVQ0dN8N40NeZ-Qwh-2" target="bSfvVQ0dN8N40NeZ-Qwh-11">
          <mxGeometry relative="1" as="geometry" />
        </mxCell>
        <mxCell id="bSfvVQ0dN8N40NeZ-Qwh-2" value="Go to amounts&amp;nbsp;" style="rounded=0;whiteSpace=wrap;html=1;" vertex="1" parent="WIyWlLk6GJQsqaUBKTNV-1">
          <mxGeometry x="160" y="836" width="120" height="60" as="geometry" />
        </mxCell>
        <mxCell id="bSfvVQ0dN8N40NeZ-Qwh-4" value="Change delegates voted state to &quot;CASTED&quot; for your name" style="whiteSpace=wrap;html=1;rounded=1;glass=0;strokeWidth=1;shadow=0;" vertex="1" parent="WIyWlLk6GJQsqaUBKTNV-1">
          <mxGeometry x="-60" y="430" width="120" height="65" as="geometry" />
        </mxCell>
        <mxCell id="bSfvVQ0dN8N40NeZ-Qwh-8" value="" style="edgeStyle=none;rounded=0;orthogonalLoop=1;jettySize=auto;html=1;shadow=0;" edge="1" parent="WIyWlLk6GJQsqaUBKTNV-1" source="bSfvVQ0dN8N40NeZ-Qwh-7" target="5thFfPLRaguLMkFNzn1F-0">
          <mxGeometry relative="1" as="geometry" />
        </mxCell>
        <mxCell id="bSfvVQ0dN8N40NeZ-Qwh-7" value="For every follower" style="ellipse;whiteSpace=wrap;html=1;aspect=fixed;" vertex="1" parent="WIyWlLk6GJQsqaUBKTNV-1">
          <mxGeometry x="470" y="523" width="80" height="80" as="geometry" />
        </mxCell>
        <mxCell id="bSfvVQ0dN8N40NeZ-Qwh-10" value="" style="edgeStyle=none;rounded=0;orthogonalLoop=1;jettySize=auto;html=1;shadow=0;" edge="1" parent="WIyWlLk6GJQsqaUBKTNV-1" source="bSfvVQ0dN8N40NeZ-Qwh-9" target="bSfvVQ0dN8N40NeZ-Qwh-2">
          <mxGeometry relative="1" as="geometry" />
        </mxCell>
        <mxCell id="bSfvVQ0dN8N40NeZ-Qwh-9" value="For every option" style="ellipse;whiteSpace=wrap;html=1;aspect=fixed;" vertex="1" parent="WIyWlLk6GJQsqaUBKTNV-1">
          <mxGeometry x="180" y="740" width="80" height="80" as="geometry" />
        </mxCell>
        <mxCell id="bSfvVQ0dN8N40NeZ-Qwh-17" value="" style="edgeStyle=none;rounded=0;orthogonalLoop=1;jettySize=auto;html=1;shadow=0;" edge="1" parent="WIyWlLk6GJQsqaUBKTNV-1" source="bSfvVQ0dN8N40NeZ-Qwh-11" target="bSfvVQ0dN8N40NeZ-Qwh-16">
          <mxGeometry relative="1" as="geometry" />
        </mxCell>
        <mxCell id="bSfvVQ0dN8N40NeZ-Qwh-11" value="Multiply current voting power by N/(N + 1)" style="rounded=0;whiteSpace=wrap;html=1;" vertex="1" parent="WIyWlLk6GJQsqaUBKTNV-1">
          <mxGeometry x="160" y="920" width="120" height="60" as="geometry" />
        </mxCell>
        <mxCell id="bSfvVQ0dN8N40NeZ-Qwh-15" value="" style="edgeStyle=none;rounded=0;orthogonalLoop=1;jettySize=auto;html=1;shadow=0;" edge="1" parent="WIyWlLk6GJQsqaUBKTNV-1" source="bSfvVQ0dN8N40NeZ-Qwh-13" target="bSfvVQ0dN8N40NeZ-Qwh-9">
          <mxGeometry relative="1" as="geometry" />
        </mxCell>
        <mxCell id="bSfvVQ0dN8N40NeZ-Qwh-13" value="N = number of delegates already voted in this person&#39;s name&amp;nbsp;" style="rounded=0;whiteSpace=wrap;html=1;" vertex="1" parent="WIyWlLk6GJQsqaUBKTNV-1">
          <mxGeometry x="160" y="650" width="120" height="60" as="geometry" />
        </mxCell>
        <mxCell id="bSfvVQ0dN8N40NeZ-Qwh-16" value="Add +1 to delegates voted state under person&#39;s name" style="whiteSpace=wrap;html=1;rounded=0;" vertex="1" parent="WIyWlLk6GJQsqaUBKTNV-1">
          <mxGeometry x="160" y="1010" width="120" height="60" as="geometry" />
        </mxCell>
        <mxCell id="bSfvVQ0dN8N40NeZ-Qwh-20" value="" style="edgeStyle=none;rounded=0;orthogonalLoop=1;jettySize=auto;html=1;shadow=0;" edge="1" parent="WIyWlLk6GJQsqaUBKTNV-1" source="bSfvVQ0dN8N40NeZ-Qwh-18" target="bSfvVQ0dN8N40NeZ-Qwh-19">
          <mxGeometry relative="1" as="geometry" />
        </mxCell>
        <mxCell id="bSfvVQ0dN8N40NeZ-Qwh-18" value="For every option" style="ellipse;whiteSpace=wrap;html=1;aspect=fixed;" vertex="1" parent="WIyWlLk6GJQsqaUBKTNV-1">
          <mxGeometry x="360" y="290" width="80" height="80" as="geometry" />
        </mxCell>
        <mxCell id="bSfvVQ0dN8N40NeZ-Qwh-21" value="" style="edgeStyle=none;rounded=0;orthogonalLoop=1;jettySize=auto;html=1;shadow=0;" edge="1" parent="WIyWlLk6GJQsqaUBKTNV-1" source="bSfvVQ0dN8N40NeZ-Qwh-19" target="WIyWlLk6GJQsqaUBKTNV-11">
          <mxGeometry relative="1" as="geometry" />
        </mxCell>
        <mxCell id="bSfvVQ0dN8N40NeZ-Qwh-19" value="Set voting power amounts in your name to 0" style="whiteSpace=wrap;html=1;" vertex="1" parent="WIyWlLk6GJQsqaUBKTNV-1">
          <mxGeometry x="340" y="435" width="120" height="60" as="geometry" />
        </mxCell>
      </root>
    </mxGraphModel>
  </diagram>
  <diagram id="eGI5bNut9ad0A6qUrTz2" name="Page-2">
    <mxGraphModel dx="1186" dy="694" grid="1" gridSize="10" guides="1" tooltips="1" connect="1" arrows="1" fold="1" page="1" pageScale="1" pageWidth="827" pageHeight="1169" math="0" shadow="0">
      <root>
        <mxCell id="0" />
        <mxCell id="1" parent="0" />
      </root>
    </mxGraphModel>
  </diagram>
</mxfile>
